Patient4_TMGait_0pt6_02_right_33_EMG.mot
version=1
nRows=26
nColumns=33
inDegrees=no
endheader
time	1LAddLong	2LGlutMax	3LGlutMed	4LIliopsoas	5LSemiMemb	6LBicFemLong	7LRecFem	8LVastMed	9LVastLat	10LGasMed	11LTibAnt	12lTibPost	13LPeroneusLong	14LSol	15LExtDigLong	16LFlexDigLong	17RAddLong	18RGlutMax	19RGlutMed	20RIliopsoas	21RSemiMemb	22RBicFemLong	23RRecFem	24RVastMed	25RVastLat	26RGasMed	27RTibAnt	28RTibPost	29RPeroneusLong	30RSol	31RExtDigLong	32RFlexDigLong
40.55	-0.014038	-0.17731	0.1445	0.005188	-0.16846	-0.40009	0.062408	0.054169	0.054626	0.027771	0.009918	-0.002136	-0.50537	0.044708	0.018921	0.010986	-0.026855	0.031738	-0.22766	0.04364	0.089264	-0.059357	-0.20111	-0.044098	0.027313	-0.013885	-0.29984	-0.003662	0.10651	-0.0383	-0.000458	-0.00824
40.551	-0.000305	-0.16525	0.12619	0.007935	-0.069733	-0.62653	-0.027618	0.050659	0.042877	0.035553	0.000153	0.001068	-0.40405	0.05249	0.023956	0.012512	-0.029449	0.010223	-0.31296	0.049133	-0.029602	-0.049896	-0.21088	-0.028534	0.034027	-0.012054	-0.6398	-0.001678	0.037689	-0.0383	0.000916	-0.008392
40.552	0.010529	-0.18768	0.000763	0.010834	-0.039368	-0.54077	-0.072632	0.028839	-0.078583	-0.002441	-0.018616	0.005493	0.47363	0.074615	0.006714	0.006256	-0.034485	0.023346	-0.36682	0.020752	-0.12756	-0.040588	-0.2475	-0.011749	0.0354	-0.00473	-0.23499	-0.001526	0.030823	-0.087891	-0.002136	-0.001068
40.553	0.037079	-0.17593	-0.12207	0.002441	-0.13046	-0.17441	-0.19852	0.018463	-0.046692	-0.009766	-0.014954	-0.002594	0.2858	0.055084	-0.11536	0.006866	-0.023193	0.054474	-0.29388	-0.02533	-0.025177	-0.045319	-0.23789	-0.011139	0.027313	-0.005951	-0.17593	-0.00824	0.011597	-0.16342	-0.001526	-0.002289
40.554	0.046692	-0.1593	-0.14099	0.007324	-0.13199	-0.061035	-0.27359	0.015106	0.087891	0.009003	-0.02594	0.001831	0.15717	0.053101	-0.21042	0.014191	-0.005798	0.10025	0.000916	-0.065308	0.013275	-0.057678	-0.23499	-0.024719	0.024109	-0.002136	-0.015564	-0.009613	-0.13062	-0.19241	-0.003662	-0.004883
40.555	0.034027	-0.14023	-0.034332	0.003204	-0.12787	0.085449	-0.23483	-0.013275	0.30258	-0.02182	-0.023193	0.013275	0.40527	0.074615	-0.12909	0.008087	0.014191	0.095978	-0.09964	-0.057831	0.014343	-0.053711	-0.21057	-0.066986	0.02594	0.006256	-0.052948	-0.007019	-0.1384	-0.16876	-0.005951	-0.010071
40.556	0.031281	-0.10635	0.13672	0.007172	-0.013885	0.31235	-0.21668	-0.050964	0.47607	-0.039368	0.004272	0.007019	0.27939	0.10452	-0.1062	-0.004425	0.016479	0.062714	-0.10391	-0.018921	0.001984	-0.06485	-0.20233	-0.061035	0.024719	0.010071	-0.20386	-0.003357	-0.13626	0.000763	0.002899	-0.006866
40.557	0.003815	-0.11948	0.1619	-0.00824	0.022583	0.28381	-0.16113	-0.054169	0.76523	-0.004272	0.032043	0.003967	0.00824	0.085144	-0.1712	0.002747	0.024872	0.051727	-0.050659	-0.037842	-0.04425	-0.062408	-0.24124	-0.061951	0.019531	0.014038	0.001831	-0.002441	-0.11917	0.19272	0.001221	-0.010681
40.558	-0.035858	-0.11307	0.2066	-0.007477	-0.036621	0.22873	0.010529	-0.030212	0.66849	0.010681	0.05249	0.00351	-0.1503	-0.024872	-0.071411	-0.003815	0.047302	0.078888	-0.045471	-0.018005	-0.063477	-0.095367	-0.2478	-0.025024	0.026855	0.003967	0.22034	-0.00351	-0.10025	0.071564	-0.000916	-0.012512
40.559	-0.049591	-0.057526	0.090485	0.005035	-0.095978	0.12009	0.1535	0.014801	0.46707	0.022125	0.048218	0.00824	-0.14145	-0.10086	-0.010834	-0.00473	0.070801	0.051422	-0.21973	0.045166	-0.079803	-0.090332	-0.26154	-0.005646	0.023499	0.01358	-0.011597	0.000305	-0.081024	0.001068	-0.003357	-0.022583
40.56	-0.016174	-0.061188	-0.040283	0.007324	0.022888	0.055084	0.12848	0.011902	0.11292	-0.005188	0.028992	0.007935	0.013885	-0.053406	0.041199	-0.000916	0.093994	0.044556	-0.26352	0.11871	-0.010376	-0.11124	-0.28519	-0.062256	0.008545	-0.001526	-0.32486	0.000305	0.010529	0.027924	0.001221	-0.029449
40.561	-0.004578	-0.15167	-0.12146	0.005035	0.10956	0.09964	0.058136	0.016937	-0.21866	-0.000763	-0.000153	0.003204	0.032501	-0.015106	0.21011	-0.003662	0.092163	0.029297	-0.19623	0.065918	0.019379	-0.16144	-0.242	-0.086975	0.006714	-0.009003	-0.074463	-0.002594	-0.009918	-0.044403	0.000153	-0.031433
40.562	-0.009613	-0.18723	-0.12497	0.006256	-0.028229	-0.10269	0.036011	0.029144	-0.41489	0.007324	0.008392	0.003815	0.037384	0.085602	0.35934	0.009308	0.081787	0.074768	-0.20218	-0.012207	-0.006256	-0.16281	-0.29358	-0.024261	0.01297	-0.009613	0.075684	-0.003662	0.048218	-0.028381	-0.00061	-0.025177
40.563	0.000458	-0.16892	-0.10803	0.011292	-0.14069	-0.24368	0.13077	0.007172	-0.46188	0.006409	0.042725	0.005646	-0.034027	0.047302	0.16098	-0.004425	0.061188	0.095978	-0.21866	-0.03891	-0.27115	-0.046692	-0.28259	-0.040894	0.010681	-0.010223	-0.041199	-0.00061	0.24902	0.056458	0.000153	-0.021667
40.564	0.02594	-0.10361	0.054016	-0.003662	-0.06073	-0.33981	0.1741	-0.025635	-0.52887	-0.00885	0.028076	0.006866	0.089111	0.014343	-0.005188	0.002289	-0.007782	0.01236	-0.2095	-0.039978	-0.22873	0.08728	-0.29175	-0.009308	0.014343	0.00061	-0.168	-0.003052	0.30182	0.048828	-0.00061	-0.013428
40.565	0.020752	-0.12894	0.1738	0.007629	0.14969	-0.62653	0.23514	-0.033417	-0.46692	0.006561	0.023499	0.001068	-0.19745	-0.037231	-0.048676	0.00885	-0.058899	-0.039063	-0.16617	-0.036621	-0.009155	0.11658	-0.27405	0.003052	0.0354	0.012817	-0.11032	-0.005646	0.29053	0.081024	-0.002136	-0.019836
40.566	0.024872	-0.103	0.081329	0.030365	0.25742	-0.34821	0.24094	-0.03891	-0.36621	0.021362	-0.002136	0.012512	-0.033569	0.021973	-0.08255	0.000458	-0.049133	0.018616	-0.24948	-0.040283	0.18372	0.074463	-0.3009	0.009003	0.029755	0.012817	-0.090637	-0.003052	0.12802	0.13184	-0.001526	-0.021973
40.567	0.018768	-0.082245	-0.000916	0.014648	0.21683	-0.033875	0.2446	-0.034637	-0.22461	0.016174	-0.018463	0.010681	0.083313	0.043945	-0.10147	0.00412	0.001221	0.04425	-0.32135	-0.009155	0.14786	0.031128	-0.27237	-0.061951	0.037994	-0.004272	-0.068054	-0.00412	0.080109	0.05661	-0.000916	-0.01709
40.568	-0.000916	-0.054779	-0.081635	0.001526	0.071411	0.19852	0.30731	-0.02243	-0.15137	0.023499	-0.033112	0.014191	0.019684	0.007324	-0.036926	0.010223	0.005951	-0.033875	-0.34576	0.054474	0.1062	0.050049	-0.25421	-0.050812	0.027466	0.008545	-0.025024	-0.003967	0.055542	0.012512	0	-0.010376
40.569	-0.015564	-0.048828	-0.14511	0.012665	-0.051422	0.18356	0.21805	0.007172	-0.11231	0.032959	-0.023956	0.013733	0.050201	0.000763	0.062256	0.012054	0.045471	-0.036316	-0.32516	0.11887	0.15564	0.085449	-0.22751	-0.063171	0.041962	0.008545	0.049744	-0.002289	-0.052948	0.008698	0	-0.019379
40.57	-0.026093	-0.042114	-0.10468	0.009766	-0.052338	0.039215	0.053711	0.025177	-0.039063	0.033112	-0.030975	0.016174	0.020142	0.009155	0.11993	0.024109	0.057983	-0.11002	-0.27786	0.098114	0.13718	0.12558	-0.25696	-0.036621	0.02655	0.001373	0.072479	-0.00351	0.14954	-0.027924	-0.005341	-0.02533
40.571	-0.018768	-0.03006	-0.10529	-0.00824	-0.062561	-0.025635	-0.024109	0.044556	-0.008545	0.024414	-0.045624	0.026855	-0.007782	0.007935	0.088959	0.015106	0.033722	-0.065155	-0.21362	0.11917	0.064392	0.17502	-0.23682	-0.01236	0.037842	-0.002594	0.095825	-0.002899	0.14771	-0.028381	-0.000153	-0.019989
40.572	-0.030518	-0.04425	-0.11932	0.005646	-0.030365	-0.032349	0.084076	0.047607	-0.09552	0.033112	-0.028687	0.020905	-0.057983	-0.025787	0.0354	0.025787	0.032196	-0.12253	-0.14786	0.11917	0.016174	0.24078	-0.24368	-0.043793	0.015717	-0.001831	0.13153	-0.001221	-0.059814	0.000305	-0.000305	-0.018921
40.573	-0.008087	-0.072327	-0.089569	-0.005646	-0.020447	-0.076447	0.082397	0.036926	-0.032959	0.023041	0.057678	0.029755	-0.077972	0.050049	0.05249	0.019531	-0.004883	-0.057983	0.12787	-0.080566	-0.01297	0.16174	-0.26779	-0.029449	0.025787	-0.000763	0.1442	-0.003357	-0.16953	0.034637	-0.007629	-0.022583
40.574	0.014191	-0.046692	-0.068817	0.029907	-0.067596	-0.26093	-0.009308	0.007324	0.12421	0.032654	0.070496	0.027618	-0.088806	0.077209	0.048218	-0.004272	0.002136	-0.1152	0.15945	-0.32684	-0.040436	0.080719	-0.33218	-0.026093	0.028229	-0.031738	0.17395	-0.007172	-0.016022	0.095062	0.009766	-0.025024
40.575	0.035095	-0.045319	-0.083313	-0.004883	-0.004883	-0.24033	-0.037842	-0.008392	0.1471	0.020294	0.042877	0.031433	-0.002136	0.084534	-0.002136	0.009308	-0.026855	-0.13107	0.063782	-0.33447	-0.008545	0.063324	-0.32516	0.04425	0.022736	-0.036926	0.12985	-0.008392	0.083313	0.10437	-0.002136	-0.025177
